<svg width="802" height="413" viewBox="0 0 802 413" fill="none" xmlns="http://www.w3.org/2000/svg">
<path d="M684.357 115.939C562.074 330.593 552.77 359.834 379.323 412.999C219.16 384.422 210.08 364.486 34.4156 78.7243C-104.481 -147.226 210.858 352.524 379.323 352.524C547.789 352.524 888.26 -241.989 684.357 115.939Z" fill="#FC8019"/>
<circle cx="374.003" cy="231.575" r="80.4119" fill="#FC8019"/>
<path d="M738.704 115.615C616.421 330.269 607.117 359.509 433.671 412.674C273.508 384.098 264.428 364.162 88.7633 78.4001C-50.1338 -147.55 265.205 352.199 433.671 352.199C602.136 352.199 942.608 -242.313 738.704 115.615Z" fill="#E93C00"/>
<circle cx="428.35" cy="231.249" r="80.4119" fill="#E93C00"/>
</svg>
